<svg xmlns="http://www.w3.org/2000/svg" width="290.11mm" height="112.97mm" viewBox="0 0 822.36 320.23"><defs><style>.cls-1{fill:#e0d3ad;}.cls-2{fill:#fbab4a;}</style></defs><title>heading</title><g id="Layer_2" data-name="Layer 2"><path class="cls-1" d="M52.44,56.54q9.29-.65,16.4-.64,19.77,0,19.76,13.2a13.11,13.11,0,0,1-2.88,8.52q-2.88,3.55-9.2,4.84a17.83,17.83,0,0,1,9.6,3.68q3.52,3,3.52,10.32,0,15.44-19.76,15.44H52.44Zm16.4.16a90.89,90.89,0,0,0-9.76.56v25H70.92q11.28-.48,11.28-13,0-6.08-3.36-9.32T68.84,56.7Zm-9.76,54.4h10.8q7.13,0,10.12-3.72T83,96q0-7.68-3-10.24c-2-1.71-5-2.61-9-2.72H59.08Z"/><path class="cls-1" d="M129.88,55.9v.8h-25.2v24H128v.8H104.68v29.6h27v.8H98v-56Z"/><path class="cls-1" d="M140.68,111.9h-1v-56h2.72l33.28,51.76V55.9h1v56h-5.84L140.68,65.5Z"/><path class="cls-1" d="M225.16,55.9a5.31,5.31,0,0,1,1.52,3.92,10.39,10.39,0,0,1-.88,4.08l-20.48,48-.88.4L184.28,55.9h6.8l16.72,47.36,17-39.36a10.16,10.16,0,0,0,.88-4.16,4.54,4.54,0,0,0-1.2-3.36Z"/><path class="cls-1" d="M266.52,55.9v.8h-25.2v24h23.36v.8H241.32v29.6h27v.8h-33.6v-56Z"/><path class="cls-1" d="M277.32,111.9h-1v-56H279l33.28,51.76V55.9h1v56h-5.84L277.32,65.5Z"/><path class="cls-1" d="M362.6,55.9h1v32q0,12.55-5,18.44a16.15,16.15,0,0,1-13,5.88,34.49,34.49,0,0,1-8.56-.92,17.87,17.87,0,0,1-6.64-3.4q-6.4-5-6.4-20v-32h6.64V87.82q0,14.57,4.4,19.44a12.12,12.12,0,0,0,4.68,3.28,17.34,17.34,0,0,0,5.88.88A15,15,0,0,0,358,105.78q4.61-5.64,4.6-18Z"/><path class="cls-1" d="M390.92,111.9h-6.64V56.7H370.44v-.8h34.4v.8H390.92Z"/><path class="cls-1" d="M406.44,85.26q0-14.57,7.08-22.12t18.2-7.56q11.11,0,17.72,6.56t6.6,21q0,14.4-7,21.76t-18.8,7.36q-10.15,0-16.64-5.84a20,20,0,0,1-5.24-8.44A38.7,38.7,0,0,1,406.44,85.26Zm25-28.88q-8.09,0-13.24,7.2T413.08,84.7q0,13.92,4.88,20.32a15.52,15.52,0,0,0,13,6.4q8.12,0,13.28-7.24t5.16-21q0-13.8-4.92-20.28A15.53,15.53,0,0,0,431.48,56.38Z"/><path class="cls-1" d="M487.32,111.9h-1l23.92-56,.88-.4,20.16,56.4h-6.8l-6.24-17.6H494.92ZM507.8,64.54l-12.56,29H518Z"/><path class="cls-2" d="M91.84,231.9h-38v-70h8.3v69h29.7Z"/><path class="cls-2" d="M107.14,156.9a3.77,3.77,0,0,1,2.85,1.2,3.58,3.58,0,0,1,1.15,2.5q0,1.31-4.5,18.7h-1.3l2.1-14.3h-.3a4,4,0,0,1-2.85-1.2A3.83,3.83,0,0,1,103,161a3.89,3.89,0,0,1,1.2-2.85A4,4,0,0,1,107.14,156.9Z"/><path class="cls-2" d="M120.84,198.6q0-18.19,8.85-27.65t22.75-9.45q13.91,0,22.15,8.2t8.25,26.2q0,18-8.8,27.2t-23.5,9.2q-12.69,0-20.8-7.3a25,25,0,0,1-6.55-10.55A48.41,48.41,0,0,1,120.84,198.6Zm31.3-36.1q-10.09,0-16.55,9t-6.45,26.4q0,17.4,6.1,25.4a19.44,19.44,0,0,0,16.25,8q10.15,0,16.6-9.05t6.45-26.3q0-17.25-6.15-25.35A19.41,19.41,0,0,0,152.14,162.5Z"/><path class="cls-2" d="M231.74,166.1a47.94,47.94,0,0,0-17.15-3.5q-8.06,0-12.55,3.4a11.13,11.13,0,0,0-4.5,9.4q0,7.31,7.6,11.3a69.26,69.26,0,0,0,7.45,3.15q4,1.46,8.15,3.25a47.81,47.81,0,0,1,7.5,4.1,16.78,16.78,0,0,1,5.5,6.35,22.28,22.28,0,0,1,2.1,10.3,16.58,16.58,0,0,1-3.5,10.65,17.25,17.25,0,0,1-8.45,5.95A38.86,38.86,0,0,1,212.34,232q-12.3,0-21-6.1l.5-.8a26.68,26.68,0,0,0,8.55,4.25A35.63,35.63,0,0,0,211.14,231,24.79,24.79,0,0,0,225,227.25q5.74-3.75,5.75-11.05,0-8-7.6-12.5a62.29,62.29,0,0,0-7.45-3.7c-2.7-1.13-5.42-2.32-8.15-3.55a50.54,50.54,0,0,1-7.5-4.15,16,16,0,0,1-7.6-14.2,15.4,15.4,0,0,1,4.9-11.85q4.91-4.55,14.75-4.55a63.05,63.05,0,0,1,20,3.4Z"/><path class="cls-2" d="M266.94,231.9h-8.3v-69h-17.3v-1h43v1h-17.4Z"/><path class="cls-2" d="M334.14,161.9v1h-31.5v30h29.2v1h-29.2v37h33.7v1h-42v-70Z"/><path class="cls-2" d="M346.84,162.7q11.6-.8,20.5-.8,24.71,0,24.7,16.5a23.25,23.25,0,0,1-3.4,12.5q-3.4,5.5-11.7,7.3l20,33.7h-9.3L368,198.8h-12.9v33.1h-8.3Zm20.5.2a111.54,111.54,0,0,0-12.2.7v34.2h14.8q14.1-.6,14.1-19.2,0-7.6-4.2-11.65T367.34,162.9Z"/><path class="cls-2" d="M404.94,162.9v-1h17.8v1h-4.9v68h4.9v1h-17.8v-1h4.6v-68Z"/><path class="cls-2" d="M432.94,231.9h-1.2l29.9-70,1.1-.5,25.2,70.5h-8.5l-7.8-22h-29.2Zm25.6-59.2-15.7,36.2h28.5Z"/><path class="cls-2" d="M527.84,162.7q11.6-.8,20.5-.8,24.7,0,24.7,16.5a16.42,16.42,0,0,1-3.6,10.65q-3.6,4.45-11.5,6,7.6.9,12,4.6t4.4,12.9q0,19.31-24.7,19.3h-21.8Zm20.5.2a111.54,111.54,0,0,0-12.2.7v31.2h14.8q14.1-.6,14.1-16.2,0-7.6-4.2-11.65T548.34,162.9Zm-12.2,68h13.5q8.9,0,12.65-4.65T566,212q0-9.6-3.8-12.8t-11.3-3.4h-14.8Z"/><path class="cls-2" d="M624.64,161.9v1h-31.5v30h29.2v1h-29.2v37h33.7v1h-42v-70Z"/><path class="cls-2" d="M675.34,231.9h-38v-70h8.3v69h29.7Z"/><path class="cls-2" d="M723.34,231.9h-38v-70h8.3v69h29.7Z"/><path class="cls-2" d="M730.54,231.9h-1.2l29.9-70,1.1-.5,25.2,70.5H777l-7.8-22H740Zm25.6-59.2-15.7,36.2h28.5Z"/></g></svg>
