<svg id="Layer_1" data-name="Layer 1" xmlns="http://www.w3.org/2000/svg" width="1101.05mm" height="1101.05mm" viewBox="0 0 3121.08 3121.08"><defs><style>.cls-1{stroke:#fbab4a;stroke-miterlimit:10;stroke-width:6px;}.cls-2{fill:#fbab4a;}.cls-3{fill:#231f20;}</style></defs><title>logoMedBaggrund</title><circle class="cls-1" cx="1560.54" cy="1560.54" r="1557.54"/><path class="cls-2" d="M1736,3086.41h46.84V1239.68a479.78,479.78,0,0,0-46.84-23.23Z" transform="translate(-263.29 -215.6)"/><rect class="cls-2" x="1297.05" y="185.12" width="46.84" height="2685.69"/><path class="cls-2" d="M1648.17,3086.41H1695V1200.92q-6.46-2.14-13-4.12V414.13c0-7.38-8.32-13.41-18.49-13.41h-15.33Z" transform="translate(-263.29 -215.6)"/><path class="cls-2" d="M1823.83,3086.41h46.84V1304.15a444,444,0,0,0-46.84-38.39Z" transform="translate(-263.29 -215.6)"/><path class="cls-2" d="M1911.64,3086.41h46.84V1423.55a388,388,0,0,0-46.84-74.89Z" transform="translate(-263.29 -215.6)"/><path class="cls-2" d="M1209,3086.41h46.84V1254.54A454.66,454.66,0,0,0,1209,1289.4Z" transform="translate(-263.29 -215.6)"/><path class="cls-2" d="M1121.22,3086.41h46.84V1329.19a400.61,400.61,0,0,0-46.84,63.47Z" transform="translate(-263.29 -215.6)"/><rect class="cls-2" x="1209.23" y="185.12" width="46.84" height="2685.69"/><path class="cls-2" d="M1384.69,3086.41h46.84V400.72h-31.79c-6.19,0-11.69,2.25-15,5.66Z" transform="translate(-263.29 -215.6)"/><path class="cls-2" d="M1296.83,3086.41h46.84V1209.71a490.25,490.25,0,0,0-46.84,21.08Z" transform="translate(-263.29 -215.6)"/><path class="cls-2" d="M2162.53,2971.82c-15.26,3-29,6.39-41,10v71.52a420.47,420.47,0,0,0,41,10Z" transform="translate(-263.29 -215.6)"/><path class="cls-2" d="M2209.37,2284a282.89,282.89,0,0,0,41,32.85V1830.92h-41Z" transform="translate(-263.29 -215.6)"/><path class="cls-2" d="M2121.55,2157.87a500,500,0,0,0,41,70.82V1830.92h-41Z" transform="translate(-263.29 -215.6)"/><path class="cls-2" d="M2250.36,2959.83c-14.27,1.25-28,2.74-41,4.43V3071c13,1.69,26.73,3.17,41,4.42Z" transform="translate(-263.29 -215.6)"/><path class="cls-2" d="M2385,2350.25a192.64,192.64,0,0,0,41-9.9V1830.92h-41Z" transform="translate(-263.29 -215.6)"/><path class="cls-2" d="M2648.5,2022.34C2662.37,1963.1,2670,1898.53,2670,1831H2648.5Z" transform="translate(-263.29 -215.6)"/><path class="cls-2" d="M2472.83,2316.8a281.81,281.81,0,0,0,41-32.85V1831h-41Z" transform="translate(-263.29 -215.6)"/><path class="cls-2" d="M2338.18,2955.34q-20.94.35-41,1.32v121.88q20,.95,41,1.32Z" transform="translate(-263.29 -215.6)"/><path class="cls-2" d="M2297.2,2340.34a192.93,192.93,0,0,0,41,9.9V1830.92h-41Z" transform="translate(-263.29 -215.6)"/><path class="cls-2" d="M2426,2956.68q-20-1-41-1.32v124.52q21-.36,41-1.32Z" transform="translate(-263.29 -215.6)"/><path class="cls-2" d="M2074.71,1830.92h-21.49c0,67.58,7.62,132.15,21.49,191.39Z" transform="translate(-263.29 -215.6)"/><path class="cls-2" d="M2648.5,3030.13c3.85-4.05,5.87-8.23,5.87-12.51s-2-8.46-5.87-12.5Z" transform="translate(-263.29 -215.6)"/><path class="cls-2" d="M2074.71,3005.12c-3.85,4-5.88,8.22-5.88,12.5s2,8.46,5.88,12.5Z" transform="translate(-263.29 -215.6)"/><path class="cls-2" d="M2513.83,2964.26c-13-1.69-26.72-3.18-41-4.43V3075.4c14.26-1.25,28-2.73,41-4.42Z" transform="translate(-263.29 -215.6)"/><path class="cls-2" d="M2601.66,2981.86a420.47,420.47,0,0,0-41-10v91.59c15.27-3,29-6.39,41-10Z" transform="translate(-263.29 -215.6)"/><path class="cls-2" d="M2560.67,1830.92v397.77a498.11,498.11,0,0,0,41-70.82v-327Z" transform="translate(-263.29 -215.6)"/><rect class="cls-2" x="2079.89" y="2134.65" width="36.85" height="605.11"/><path class="cls-3" d="M1340.28,1827.73q109.8-7.57,194-7.57,233.76,0,233.78,156.17,0,58.7-34.07,100.8t-108.85,57.26q71.91,8.52,113.58,43.54t41.64,122.1q0,182.68-233.78,182.67h-206.3Zm194,1.89a1066.13,1066.13,0,0,0-115.48,6.63v295.3h140.13q133.46-5.67,133.45-153.33,0-71.92-39.75-110.27t-118.31-38.33Zm-115.45,643.62h127.78q84.24,0,119.73-44t35.49-134.9q0-90.86-36-121.15t-107-32.18h-140Z" transform="translate(-263.29 -215.6)"/></svg>
